<svg width="28" height="28" viewBox="0 0 28 28" xmlns="http://www.w3.org/2000/svg"><defs><style>@font-face{font-family:ifont;src:url(//at.alicdn.com/t/font_1442373896_4754455.eot?#iefix) format(&amp;quot;embedded-opentype&amp;quot;),url(//at.alicdn.com/t/font_1442373896_4754455.woff) format(&amp;quot;woff&amp;quot;),url(//at.alicdn.com/t/font_1442373896_4754455.ttf) format(&amp;quot;truetype&amp;quot;),url(//at.alicdn.com/t/font_1442373896_4754455.svg#ifont) format(&amp;quot;svg&amp;quot;)}</style></defs><path d="M25.488 21.514l-11.07 4.581a1.143 1.143 0 0 1-.909 0l-11.07-4.58a1.147 1.147 0 0 1-.716-1.064V2.856a1.148 1.148 0 0 1 1.586-1.06h.002l.01.004 10.642 4.404L24.606 1.8l.01-.004h.001a1.148 1.148 0 0 1 1.587 1.06V20.45c0 .481-.296.893-.716 1.063zM12.215 8.703L3.472 5.205v13.99l8.743 3.497V8.702zm12.24-3.498l-8.743 3.498v13.989l8.743-3.497V5.205zm-7.524 4.64l4.208-1.913a1.149 1.149 0 0 1 .95 2.088l-4.208 1.913a1.148 1.148 0 1 1-.95-2.089zm0 4.206l4.208-1.912a1.148 1.148 0 0 1 .95 2.089L17.88 16.14a1.149 1.149 0 0 1-1.622-1.044c0-.464.274-.864.672-1.045zm0 4.208l4.208-1.913a1.148 1.148 0 0 1 .95 2.09l-4.208 1.912a1.149 1.149 0 0 1-1.622-1.044c0-.465.274-.864.672-1.045zM6.313 7.828c.17 0 .33.038.475.104l4.208 1.912a1.148 1.148 0 1 1-.95 2.089L5.838 10.02a1.149 1.149 0 0 1 .475-2.193zm0 4.208c.17 0 .33.037.475.103l4.208 1.912a1.147 1.147 0 1 1-.95 2.09l-4.208-1.913a1.148 1.148 0 0 1 .475-2.192zm0 4.208c.17 0 .33.037.475.102l4.208 1.913a1.147 1.147 0 1 1-.95 2.09l-4.208-1.913a1.147 1.147 0 0 1 .475-2.192z" class="transform-group"/></svg>