<svg width="16" height="16" viewBox="0 0 16 16" xmlns="http://www.w3.org/2000/svg"><defs><style>@font-face{font-family:ifont;src:url(//at.alicdn.com/t/font_1442373896_4754455.eot?#iefix) format(&amp;quot;embedded-opentype&amp;quot;),url(//at.alicdn.com/t/font_1442373896_4754455.woff) format(&amp;quot;woff&amp;quot;),url(//at.alicdn.com/t/font_1442373896_4754455.ttf) format(&amp;quot;truetype&amp;quot;),url(//at.alicdn.com/t/font_1442373896_4754455.svg#ifont) format(&amp;quot;svg&amp;quot;)}</style></defs><path d="M8 1.403a6.685 6.685 0 0 0-6.678 6.678 6.67 6.67 0 0 0 5.014 6.461l.172.044a.31.31 0 0 0 .386-.266l.017-.147a.54.54 0 0 0 .014-.121v-1.33a.312.312 0 0 0-.19-.288.312.312 0 0 0 .185-.247l.013-.098c.031-.253.108-.431.228-.53l.269-.22a.311.311 0 0 0 .103-.323.31.31 0 0 0-.253-.227l-.344-.053a24.932 24.932 0 0 1-.79-.136 3.55 3.55 0 0 1-.637-.278 1.815 1.815 0 0 1-.514-.424 2.1 2.1 0 0 1-.342-.693 3.615 3.615 0 0 1-.148-1.08c0-.533.172-.98.508-1.331l.068-.072a.312.312 0 0 0 .064-.335l-.037-.09c-.119-.3-.133-.638-.04-1.005a1.885 1.885 0 0 1 .195.077l.004.001c.333.124.492.207.569.257.016.01.031.02.047.028l.003.001c.119.064.21.12.27.167 0 .002.002.002.003.004l.064.048c.08.06.185.08.28.05l.075-.023c.424-.127.87-.193 1.328-.193h.185c.451 0 .898.064 1.33.193l.071.021a.314.314 0 0 0 .274-.045l.33-.236c.196-.101.421-.208.671-.317l.152-.042c.1.378.09.712-.027.998l-.037.09a.312.312 0 0 0 .058.33l.067.074c.35.381.512.808.512 1.34 0 .42-.048.78-.145 1.066a.208.208 0 0 0-.008.03c-.092.295-.203.519-.326.664a1.499 1.499 0 0 1-.51.427.152.152 0 0 0-.03.017l-.004.003c-.216.131-.424.22-.617.264-.014.003-.027.008-.041.012a4.565 4.565 0 0 1-.73.122l-.353.032c-.123.01-.228.095-.269.212s-.006.248.086.331l.263.238c.18.162.27.433.27.8v1.726c0 .05.008.091.014.118l.017.151a.31.31 0 0 0 .31.278.347.347 0 0 0 .08-.01l.171-.044a6.67 6.67 0 0 0 5.011-6.461c-.003-3.688-3-6.688-6.681-6.688zm1.673 10.014c.125-.023.244-.05.357-.08a2.9 2.9 0 0 0 .84-.357c.288-.15.536-.355.738-.61.197-.23.353-.54.481-.95.123-.368.186-.81.186-1.312 0-.656-.2-1.235-.594-1.722.155-.508.11-1.08-.134-1.702a.316.316 0 0 0-.216-.189.893.893 0 0 0-.222-.025c-.172 0-.375.04-.604.116-.008.003-.018.006-.025.01-.314.137-.566.256-.772.365a.275.275 0 0 0-.036.022l-.175.125a5.483 5.483 0 0 0-1.403-.185c-.032 0-.063 0-.099.002h-.03c-.02-.002-.037-.002-.056-.002-.48 0-.951.063-1.406.186a3.718 3.718 0 0 0-.237-.139c-.163-.106-.4-.214-.724-.333-.25-.107-.462-.16-.647-.16-.1 0-.19.014-.27.043a.318.318 0 0 0-.183.18c-.236.603-.276 1.173-.12 1.697-.394.475-.594 1.055-.594 1.725 0 .484.063.926.184 1.312.118.377.279.697.48.949l.002.001c.19.235.439.44.737.611.002 0 .002.002.003.002a4.125 4.125 0 0 0 .844.36l.34.062c-.05.11-.09.234-.118.367l-.156.045a4.655 4.655 0 0 1-.388.036.858.858 0 0 1-.367-.119 1.43 1.43 0 0 1-.353-.401 1.405 1.405 0 0 0-.478-.528c-.197-.138-.366-.213-.527-.233L3.8 10.55a.301.301 0 0 0-.108-.01c-.15.013-.251.033-.331.065a.295.295 0 0 0-.072.04c-.148.113-.2.29-.136.444.025.08.067.152.127.21.04.059.089.107.145.143l.027.027c.03.031.065.054.106.07a.538.538 0 0 1 .21.199c.005.004.009.01.013.015.096.12.166.233.211.338l.008.015.073.149c.049.147.116.278.205.39a5.923 5.923 0 0 1-1.84-2.607 5.868 5.868 0 0 1-.335-1.96A5.876 5.876 0 0 1 3.83 3.911 5.882 5.882 0 0 1 8 2.184a5.865 5.865 0 0 1 4.17 1.727 5.882 5.882 0 0 1 1.728 4.17 5.852 5.852 0 0 1-1.259 3.636 5.945 5.945 0 0 1-2.784 1.956v-1.35c0-.348-.061-.651-.182-.906zm-4.476 1.764c.18.044.36.066.537.066.029 0 .058 0 .091-.002a1.98 1.98 0 0 0 .323-.006v.433a5.882 5.882 0 0 1-1.207-.56c.082.032.168.054.256.07z" class="transform-group"/></svg>