<svg width="16" height="16" viewBox="0 0 16 16" xmlns="http://www.w3.org/2000/svg"><defs><style>@font-face{font-family:ifont;src:url(//at.alicdn.com/t/font_1442373896_4754455.eot?#iefix) format(&amp;quot;embedded-opentype&amp;quot;),url(//at.alicdn.com/t/font_1442373896_4754455.woff) format(&amp;quot;woff&amp;quot;),url(//at.alicdn.com/t/font_1442373896_4754455.ttf) format(&amp;quot;truetype&amp;quot;),url(//at.alicdn.com/t/font_1442373896_4754455.svg#ifont) format(&amp;quot;svg&amp;quot;)}</style></defs><path d="M6.287 11.753l-.648.644a1.451 1.451 0 0 1-2.036 0 1.41 1.41 0 0 1 0-2.003L5.987 8.03c.494-.49 1.423-1.212 2.101-.54a.794.794 0 1 0 1.118-1.126c-1.15-1.142-2.853-.931-4.336.54L2.486 9.269a2.975 2.975 0 0 0-.886 2.126c0 .805.315 1.56.886 2.127a3.023 3.023 0 0 0 2.136.876c.773 0 1.547-.292 2.135-.876l.649-.644a.79.79 0 0 0 .004-1.12.796.796 0 0 0-1.123-.005zm7.226-9.187c-1.238-1.228-2.967-1.294-4.111-.158l-.808.802a.792.792 0 1 0 1.117 1.124l.808-.8c.592-.59 1.369-.345 1.877.157a1.405 1.405 0 0 1 0 2.003L9.852 8.217c-1.163 1.153-1.709.613-1.942.381a.792.792 0 1 0-1.116 1.125c.534.53 1.144.792 1.782.792.782 0 1.608-.393 2.394-1.173l2.544-2.523c.57-.568.886-1.323.886-2.126a2.98 2.98 0 0 0-.887-2.127z" class="transform-group"/></svg>