<svg width="16" height="16" viewBox="0 0 16 16" xmlns="http://www.w3.org/2000/svg"><defs><style>@font-face{font-family:ifont;src:url(//at.alicdn.com/t/font_1442373896_4754455.eot?#iefix) format(&amp;quot;embedded-opentype&amp;quot;),url(//at.alicdn.com/t/font_1442373896_4754455.woff) format(&amp;quot;woff&amp;quot;),url(//at.alicdn.com/t/font_1442373896_4754455.ttf) format(&amp;quot;truetype&amp;quot;),url(//at.alicdn.com/t/font_1442373896_4754455.svg#ifont) format(&amp;quot;svg&amp;quot;)}</style></defs><path d="M15.003 4.165a.438.438 0 0 0-.03-.226c-.106-.496-.461-.747-1.06-.747H2.535c-.523 0-1.088.191-1.363.57a.44.44 0 0 0-.163.418.937.937 0 0 0-.006.106v7.002c0 .725.807 1.531 1.532 1.531h11.378c.725 0 1.094-.806 1.094-1.531V4.286c0-.042-.001-.082-.004-.121zM2.535 4.067h11.384L8.005 8.78l-5.89-4.694c.134-.025.299-.02.42-.02zm11.378 7.877H2.535c-.241 0-.657-.415-.657-.656v-6.27l5.84 4.672a.436.436 0 0 0 .574 0l5.84-4.672v6.27c0 .241.022.656-.219.656z" class="transform-group"/></svg>