<svg width="28" height="28" viewBox="0 0 28 28" xmlns="http://www.w3.org/2000/svg"><defs><style>@font-face{font-family:ifont;src:url(//at.alicdn.com/t/font_1442373896_4754455.eot?#iefix) format(&amp;quot;embedded-opentype&amp;quot;),url(//at.alicdn.com/t/font_1442373896_4754455.woff) format(&amp;quot;woff&amp;quot;),url(//at.alicdn.com/t/font_1442373896_4754455.ttf) format(&amp;quot;truetype&amp;quot;),url(//at.alicdn.com/t/font_1442373896_4754455.svg#ifont) format(&amp;quot;svg&amp;quot;)}</style></defs><path d="M16.57 12.898a6.011 6.011 0 0 0 3.355-5.401c0-3.321-2.669-6.014-5.96-6.014s-5.96 2.693-5.96 6.014a6.013 6.013 0 0 0 3.38 5.414c-3.795 1.184-6.572 4.867-6.572 9.222v.648c0 .415.52.752.931.752.412 0 .845-.325.845-.726v-.625c0-4.323 3.253-7.84 7.411-7.84 4.158 0 7.397 3.517 7.397 7.84v.625c0 .4.476.726.887.726.412 0 .903-.337.903-.752v-.648c0-4.372-2.799-8.066-6.617-9.235zm-6.7-5.444A4.139 4.139 0 0 1 14 3.317c2.28 0 4.133 1.856 4.133 4.137S16.28 11.59 14 11.59a4.14 4.14 0 0 1-4.13-4.136zm0 0" class="transform-group"/></svg>