<svg width="24" height="24" viewBox="0 0 24 24" xmlns="http://www.w3.org/2000/svg"><defs><style>@font-face{font-family:ifont;src:url(//at.alicdn.com/t/font_1442373896_4754455.eot?#iefix) format(&amp;quot;embedded-opentype&amp;quot;),url(//at.alicdn.com/t/font_1442373896_4754455.woff) format(&amp;quot;woff&amp;quot;),url(//at.alicdn.com/t/font_1442373896_4754455.ttf) format(&amp;quot;truetype&amp;quot;),url(//at.alicdn.com/t/font_1442373896_4754455.svg#ifont) format(&amp;quot;svg&amp;quot;)}</style></defs><path d="M6.726 5.273a1.889 1.889 0 0 0 0-3.776 1.887 1.887 0 0 0 0 3.776zm.458 2.153V6.323H5.612l-3.035 8.921c-.02.063-.066.2-.088.262-.04.117-.073.142-.007.142l6.932.055v6.809h2.23v-8.946H6.627l1.015-3.91h4.556v-2.23H7.184zM2.147 18.602h2.23v3.91h2.255v-3.91h1.655v-2.23h-6.14zm10.625-8.946v.576H9.414v2.23h5.037v10.05h2.23v-10.05h3.91v-2.23h-.842l2.097-4.47-1.198-.903-1.846 4.797z" class="transform-group"/></svg>