<svg width="16" height="16" viewBox="0 0 16 16" xmlns="http://www.w3.org/2000/svg"><defs><style>@font-face{font-family:ifont;src:url(//at.alicdn.com/t/font_1442373896_4754455.eot?#iefix) format(&amp;quot;embedded-opentype&amp;quot;),url(//at.alicdn.com/t/font_1442373896_4754455.woff) format(&amp;quot;woff&amp;quot;),url(//at.alicdn.com/t/font_1442373896_4754455.ttf) format(&amp;quot;truetype&amp;quot;),url(//at.alicdn.com/t/font_1442373896_4754455.svg#ifont) format(&amp;quot;svg&amp;quot;)}</style></defs><path d="M12.085.936a.985.985 0 0 0-.7-.29H4.631a1.003 1.003 0 0 0-1.008 1.008v12.703a.99.99 0 0 0 .292.705.99.99 0 0 0 .705.292h6.76a.99.99 0 0 0 .703-.291.99.99 0 0 0 .292-.705V1.638a.985.985 0 0 0-.29-.702zm-.349 13.422a.354.354 0 0 1-.356.357H4.621a.355.355 0 0 1-.357-.358v-1.673h7.472v1.674zm0-2.314H4.264V1.654a.366.366 0 0 1 .368-.369h6.752a.35.35 0 0 1 .352.353v10.406zM7.348 13.7a.652.652 0 1 0 1.304 0 .652.652 0 1 0-1.304 0z" class="transform-group"/></svg>