<svg width="28" height="28" viewBox="0 0 28 28" xmlns="http://www.w3.org/2000/svg"><defs><style>@font-face{font-family:ifont;src:url(//at.alicdn.com/t/font_1442373896_4754455.eot?#iefix) format(&amp;quot;embedded-opentype&amp;quot;),url(//at.alicdn.com/t/font_1442373896_4754455.woff) format(&amp;quot;woff&amp;quot;),url(//at.alicdn.com/t/font_1442373896_4754455.ttf) format(&amp;quot;truetype&amp;quot;),url(//at.alicdn.com/t/font_1442373896_4754455.svg#ifont) format(&amp;quot;svg&amp;quot;)}</style></defs><path d="M24.34 3.33H10.885A1.4 1.4 0 0 0 9.49 4.726c0 .765.629 1.39 1.396 1.39H24.34c.766 0 1.393-.625 1.393-1.39 0-.768-.627-1.394-1.393-1.394zm-17.783.306l-1.193-.173a.3.3 0 0 1-.21-.16l-.526-1.126a.54.54 0 0 0-.994 0l-.528 1.12c-.048.096-.126.157-.205.165l-1.195.174c-.458.076-.64.648-.312.992l.858.862c.067.075.101.17.085.258L2.13 6.973c-.072.479.404.842.81.611L4 7.01a.245.245 0 0 1 .256 0l1.067.576c.405.23.883-.133.809-.61L5.926 5.75a.33.33 0 0 1 .083-.26l.855-.862c.332-.344.15-.916-.307-.992zm17.783 7.377H10.885a1.4 1.4 0 0 0-1.396 1.393 1.4 1.4 0 0 0 1.396 1.395H24.34c.766 0 1.393-.627 1.393-1.395 0-.766-.627-1.393-1.393-1.393zm-17.783.222l-1.193-.172a.296.296 0 0 1-.21-.16l-.526-1.128a.54.54 0 0 0-.994.003l-.528 1.12c-.048.095-.126.156-.205.163l-1.195.174c-.458.077-.64.65-.312.99l.858.865a.308.308 0 0 1 .085.258l-.208 1.223c-.072.48.404.841.81.612L4 14.608a.244.244 0 0 1 .256 0l1.067.575c.405.23.883-.131.809-.609l-.206-1.225a.33.33 0 0 1 .083-.261l.855-.86c.332-.343.15-.916-.307-.993zm17.783 7.852H10.885a1.4 1.4 0 0 0-1.396 1.393 1.4 1.4 0 0 0 1.396 1.393H24.34c.766 0 1.393-.628 1.393-1.393 0-.766-.627-1.393-1.393-1.393zm-17.783.053l-1.193-.172a.297.297 0 0 1-.21-.16l-.526-1.126a.54.54 0 0 0-.994.001l-.528 1.119c-.048.095-.126.157-.205.164l-1.195.174c-.458.077-.64.65-.312.991l.858.864a.31.31 0 0 1 .085.258l-.208 1.223c-.072.48.404.84.81.611L4 22.515a.24.24 0 0 1 .256-.004l1.067.577c.405.229.883-.132.809-.608l-.206-1.224a.332.332 0 0 1 .083-.263l.855-.86c.332-.344.15-.916-.307-.993zm0 0" fill="#272636" class="transform-group"/></svg>