<svg width="28" height="28" viewBox="0 0 28 28" xmlns="http://www.w3.org/2000/svg"><defs><style>@font-face{font-family:ifont;src:url(//at.alicdn.com/t/font_1442373896_4754455.eot?#iefix) format(&amp;quot;embedded-opentype&amp;quot;),url(//at.alicdn.com/t/font_1442373896_4754455.woff) format(&amp;quot;woff&amp;quot;),url(//at.alicdn.com/t/font_1442373896_4754455.ttf) format(&amp;quot;truetype&amp;quot;),url(//at.alicdn.com/t/font_1442373896_4754455.svg#ifont) format(&amp;quot;svg&amp;quot;)}</style></defs><path d="M14.046 21.66a.765.765 0 1 0 0 1.531.765.765 0 0 0 0-1.53zm-6.504-2.263a.765.765 0 1 0 1.083 1.082.765.765 0 0 0-1.083-1.082zm-1.915-6.155a.766.766 0 1 0 0 1.53.766.766 0 0 0 0-1.53zm14.89-4.592a.765.765 0 1 0-1.081-1.082.765.765 0 0 0 1.081 1.082zm-6.471-6.89C7.283 1.761 1.8 7.244 1.8 14.007s5.482 12.245 12.246 12.245c6.763 0 12.245-5.482 12.245-12.245 0-6.763-5.483-12.246-12.245-12.246zm0 22.958c-5.916 0-10.712-4.796-10.712-10.712 0-5.916 4.796-10.711 10.712-10.711S24.757 8.09 24.757 14.007 19.961 24.72 14.046 24.72zm.765-12.867V5.588a.765.765 0 1 0-1.53 0v6.264a2.31 2.31 0 0 0-.41.192c-.136.081-3.167-3.477-4.46-4.706-.296-.28-.907-.359-1.181-.038-.238.278-.35.815-.178 1.156.13.261 4.78 5.034 4.78 5.034s-.082.234-.082.517a2.296 2.296 0 0 0 2.296 2.296c.998 0 1.839-.64 2.155-1.53 0 0 .137-.356.137-.724 0-.396-.137-.808-.137-.808a2.288 2.288 0 0 0-1.39-1.39zm-.765 2.92a.765.765 0 1 1 0-1.53.765.765 0 0 1 0 1.53zm5.407 4.649a.766.766 0 1 0 1.083 1.082.766.766 0 0 0-1.083-1.082z" class="transform-group"/></svg>