<svg width="28" height="28" viewBox="0 0 28 28" xmlns="http://www.w3.org/2000/svg"><defs><style>@font-face{font-family:ifont;src:url(//at.alicdn.com/t/font_1442373896_4754455.eot?#iefix) format(&amp;quot;embedded-opentype&amp;quot;),url(//at.alicdn.com/t/font_1442373896_4754455.woff) format(&amp;quot;woff&amp;quot;),url(//at.alicdn.com/t/font_1442373896_4754455.ttf) format(&amp;quot;truetype&amp;quot;),url(//at.alicdn.com/t/font_1442373896_4754455.svg#ifont) format(&amp;quot;svg&amp;quot;)}</style></defs><path d="M13.125 19.075h1.75v4.55h-1.75v-4.55zm10.5 1.05H4.375c-1.488 0-2.625-1.137-2.625-2.625V6.125C1.75 4.637 2.887 3.5 4.375 3.5h19.25c1.488 0 2.625 1.137 2.625 2.625V17.5c0 1.487-1.138 2.625-2.625 2.625zM4.375 5.25c-.525 0-.875.35-.875.875V17.5c0 .525.35.875.875.875h19.25c.525 0 .875-.35.875-.875V6.125c0-.525-.35-.875-.875-.875H4.375zm5.25 17.5h8.75v1.75h-8.75v-1.75zM14 19.25v4.375-4.375zm-.875 0h1.75v4.375h-1.75V19.25z" class="transform-group"/></svg>